<svg xmlns="http://www.w3.org/2000/svg" version="1.1" preserveAspectRatio="none" viewBox="0 0 26 26">
    <path stroke-width="0" d="M 21.4395 0 C 23.6787 0 25.5 1.8203 25.5 4.0596 C 25.5 6.2891 23.6787 8.1094 21.4395 8.1094 C 20.2119 8.1094 19.1152 7.5615 18.3691 6.7021 L 8.7051 11.9023 C 8.8037 12.251 8.8594 12.6191 8.8594 13 C 8.8594 13.3809 8.8037 13.749 8.7051 14.0986 L 18.3691 19.2979 C 19.1152 18.4385 20.2119 17.8916 21.4395 17.8916 C 23.6787 17.8916 25.5 19.71 25.5 21.9395 C 25.5 24.1797 23.6787 26 21.4395 26 C 19.1973 26 17.377 24.1797 17.377 21.9395 C 17.377 21.5596 17.4336 21.1934 17.5332 20.8428 L 7.8643 15.6504 C 7.1191 16.5068 6.0225 17.0479 4.7969 17.0479 C 2.5576 17.0479 0.7373 15.2422 0.7373 13 C 0.7373 10.7588 2.5576 8.9521 4.7969 8.9521 C 6.0225 8.9521 7.1191 9.4941 7.8643 10.3486 L 17.5332 5.1572 C 17.4336 4.8076 17.377 4.4404 17.377 4.0596 C 17.377 1.8203 19.1973 0 21.4395 0 Z" style="stroke: rgb(255, 255, 255); fill: rgb(255, 255, 255);"></path>
</svg>