<?xml version="1.0" standalone="no"?>
<!DOCTYPE svg PUBLIC "-//W3C//DTD SVG 1.1//EN" "http://www.w3.org/Graphics/SVG/1.1/DTD/svg11.dtd">
<svg viewBox="0 0 26 26" version="1.1" xmlns="http://www.w3.org/2000/svg" xmlns:xlink="http://www.w3.org/1999/xlink" xml:space="preserve">
	<path d="M 9.1147 14.5732 C 9.0337 13.7861 8.707 9.9258 8.3125 6.9063 C 7.6875 2.125 8.0991 2.0508 9.3413 1.7856 C 10.6763 1.501 10.4819 2.4614 11.1997 6.6855 C 11.7085 9.6802 12.0938 11.4844 12.5 11.375 C 12.729 11.3135 12.125 7.0991 12.125 3.9688 C 12.125 0.0313 12.8003 0.1035 13.7173 0.0898 C 14.8154 0.0718 14.8408 1.1104 14.875 4.1563 C 14.9048 6.8359 15.0142 11.2046 15.5083 11.1865 C 15.8916 11.1724 15.7832 10.1504 16.8809 10.1504 C 17.9785 10.1504 18.124 11.5469 18.5771 11.5469 C 19.0303 11.5469 19.1484 11.0957 19.8281 11.0957 C 20.5068 11.0957 22 12.5127 22 17.5127 C 22 23.8018 19.959 23.8682 19.959 26 L 11.1392 26 C 11.0835 25.4883 9.9297 24.4497 8.6611 22.9268 C 6.6719 20.5386 6.1602 19.6372 6.144 18.6431 C 6.1079 16.4185 9.2617 16.0029 9.1147 14.5732 Z" fill="#333333"/>
</svg>