<svg viewBox="0 0 66 660" style="background-color:#ffffff00" xmlns="http://www.w3.org/2000/svg" width="66" height="660"><path d="M11.61 23.21l5.348 2.983v-1.666c4.6-.377 8.2-3.827 8.2-8.027 0-2.187-.61-4.168-2.194-5.62l-2.25 1.832c1.09.967 1.395 2.307 1.395 3.788 0 2.696-2.24 4.924-5.152 5.287v-1.56l-5.348 2.984zM21.774 9.79l-5.732-2.98v1.665c-4.6.377-8.202 3.825-8.202 8.026 0 2.19.598 4.172 2.185 5.625l2.253-1.834c-1.094-.966-1.388-2.306-1.388-3.79 0-2.694 2.24-4.926 5.152-5.288v1.562l5.732-2.983zM23.375 42.808c0-.443-.362-.806-.806-.806H10.18c-.442 0-.805.363-.805.806v12.59c0 .444.363.806.806.806h8.562l4.625-4.658.008-8.738zM17.7 55.038v-4.443h4.444L17.7 55.037zM14.268 86.293l-3.274-3.29c-.153-.152-.374-.215-.584-.16-.21.054-.375.215-.435.423L7.9 88.64c-.064.215-.004.448.154.607.116.116.385.19.604.155l5.348-2.085c.208-.06.368-.227.422-.438.053-.21-.008-.434-.16-.587z" fill="#82879b"/><path d="M19.41 73.914l3.907 3.924-8.403 8.44-3.906-3.923 8.403-8.44zm0-1.687c-.214 0-.43.082-.592.246L9.574 81.76c-.327.328-.327.864 0 1.19l4.746 4.77c.164.165.38.247.594.247.215 0 .43-.082.593-.247l9.244-9.285c.328-.33.328-.865 0-1.193l-4.746-4.77c-.164-.163-.378-.245-.593-.245z" fill="#82879b"/><path d="M11.847 81.23l-1.294 1.3 4.234 4.252 1.293-1.3-4.233-4.253zM14.02 79.046l-.77.774 4.232 4.254.77-.775-4.232-4.254zM24.388 90.636H10.696c-.407 0-.737.36-.737-.05s.33-.74.736-.74h13.692c.407 0 .738.014.738.423 0 .408-.33.367-.738.367zM23.62 121.03l-1.627 1.636c-.297.3-.784.3-1.083 0l-4.065-4.087-4.067 4.086c-.298.3-.785.3-1.083-.002l-1.628-1.633c-.298-.3-.298-.787 0-1.09l4.066-4.088-4.065-4.086c-.297-.302-.297-.793 0-1.09l1.627-1.636c.298-.303.786-.303 1.083 0l4.066 4.087 4.065-4.087c.3-.303.786-.303 1.082 0l1.628 1.633c.298.3.298.79 0 1.093l-4.064 4.086 4.064 4.088c.298.303.298.79 0 1.09zM11.046 145.48c-.254-.8-.043-1.665.55-2.256.58-.58 1.466-.8 2.255-.546l1.9.605c-.424-1.684-1.937-2.936-3.753-2.936-2.145 0-3.884 1.74-3.884 3.884 0 2.106 1.678 3.81 3.768 3.873l-.834-2.623z" fill="#82879b"/><path d="M24.926 154.364l-4.326-4.327 3.15-1.36c.245-.104.398-.35.385-.616-.013-.265-.19-.495-.444-.576l-10.324-3.288c-.227-.073-.476-.013-.645.156-.167.17-.228.418-.155.645l3.288 10.326c.08.254.31.43.576.444.265.013.51-.14.617-.385l1.36-3.15 4.325 4.326c.12.12.282.187.45.187.17 0 .333-.067.452-.187l1.292-1.292c.25-.25.25-.653 0-.902zm0 0z" fill="#82879b"/><g fill="#82879b"><path d="M24.92 178.238l-1.812-2.47c-.204-.216-.545-.205-.763.008l-1.832 2.57c-.213.21-.273.66.005.66h.698v8.256c0 .056.026.9-.113.9-1.356-3.82-2.3-10.73-4.02-10.73H13.5c-.688 0-1.714.673-1.714 3.15v6.61c0 1.096.096 2.392-.4 2.392-.368 0-.386-1.294-.386-2.393v-9.758H9.523c-.833 0-1.668.673-1.668 1.5v8.26c0 2.518.81 3.602 2.477 3.602h2.478c1.66 0 2.118-1.126 2.118-3.603v-6.607c0-.28.032-1.032.203-1.032 1.394 3.724 2.437 11.244 4.29 11.244h-.003 3.304s.09.002.07 0c.8-.05 1.57-1.115 1.57-3.532v-8.257h.563c.384 0 .197-.55-.003-.767zM12.534 174.14c0-1.058-1.047-1.915-2.34-1.915-1.292 0-2.34.857-2.34 1.914v2.766s.142-.852 1.79-.852c2.11 0 2.89-.858 2.89-1.915z"/></g><g fill="#82879b"><path d="M6.073 213.83l7.55-3.124v2.302l-4.616 1.796 4.617 1.79v2.3l-7.55-3.123v-1.94zM16.4 209.318h2.157l-2.493 11.21h-2.157l2.492-11.21zM26.39 213.83v1.94l-7.55 3.125v-2.302l4.617-1.79-4.617-1.795v-2.302l7.55 3.124z"/></g><g fill="#82879b"><path d="M16.56 247.106h-7v-5h7v5zM24.498 247.106h-7v-5h7v5zM16.56 253.106h-7v-5h7v5zM24.498 253.106h-7v-5h7v5z"/></g><path d="M22.95 279.29c0-3.278-2.892-7.025-7.47-7.025-4.097 0-7.23 3.044-7.23 7.024 0 3.278 2.65 7.258 7.23 7.258 1.396 0 2.918-.48 4.22-1.362l3.687 3.58 1.363-1.324-3.608-3.507c1.086-1.202 1.807-2.78 1.807-4.646zm-1.447 0c0 3.278-2.89 5.854-6.024 5.854-3.856 0-5.784-3.044-5.784-5.855 0-3.278 2.41-5.62 5.784-5.62 3.373 0 6.023 2.342 6.023 5.62zM16.455 307.024l-8.42 7.662h2.525v5.448h4.21v-3.892h3.37v3.892h4.21v-5.448h2.525l-2.526-2.297v-5.49h-1.685v3.955l-4.21-3.83zM25.393 338.857c-.31-.312-.67-.455-1.1-.455H8.72c-.43 0-.8.155-1.1.455-.31.31-.453.67-.453 1.1v10.61c0 .43.155.8.454 1.1.31.312.668.455 1.098.455h5.29c0 .252-.047.503-.154.767-.107.263-.203.49-.31.682-.108.192-.156.336-.156.43 0 .168.06.312.18.445.12.118.274.19.44.19h4.982c.168 0 .31-.06.443-.19.12-.12.18-.277.18-.444 0-.085-.05-.228-.157-.42-.107-.19-.203-.43-.31-.694-.108-.265-.156-.516-.156-.755h5.292c.43 0 .8-.156 1.1-.454.31-.312.453-.67.453-1.102V339.97c.012-.43-.144-.803-.442-1.113zm-.788 9.22c0 .082-.037.154-.096.215-.06.06-.133.095-.216.095H8.718c-.084 0-.155-.035-.215-.095s-.096-.133-.096-.216v-8.118c0-.083.036-.156.096-.216.06-.06.13-.095.215-.095h15.576c.083 0 .155.035.215.095.058.06.095.133.095.216v8.118zM20.05 371.13h-7.1c-1.07 0-1.936.868-1.936 1.937v12.91c0 1.067.867 1.935 1.937 1.935h7.1c1.07 0 1.936-.868 1.936-1.936v-12.91c0-1.067-.867-1.935-1.936-1.935zm-4.195.646h1.29c.18 0 .323.144.323.323 0 .178-.144.32-.323.32h-1.29c-.18 0-.323-.142-.323-.32 0-.18.144-.324.323-.324zm.645 15.347c-.456 0-.825-.37-.825-.825 0-.456.37-.825.825-.825.456 0 .825.37.825.825 0 .456-.37.825-.825.825zm4.195-2.76c0 .177-.144.322-.322.322h-7.745c-.178 0-.323-.145-.323-.322V373.39c0-.18.145-.323.323-.323h7.745c.178 0 .322.144.322.323v10.973zM17.48 538.968c.34 0 .68.126.945.377.548.52.57 1.388.05 1.936l-3.064 3.223 3.06 3.2c.524.547.505 1.413-.043 1.936-.546.522-1.412.5-1.935-.045l-3.963-4.142c-.506-.53-.507-1.36-.005-1.89l3.963-4.17c.27-.282.63-.425.993-.425zm0 0zM15.52 583.02c-.34 0-.68-.125-.945-.376-.548-.52-.57-1.39-.05-1.938l3.064-3.22-3.06-3.2c-.524-.547-.505-1.413.043-1.936.546-.524 1.412-.503 1.935.043l3.963 4.142c.506.53.508 1.36.005 1.89l-3.963 4.17c-.27.283-.63.425-.993.425zm0 0zM22.645 636.304h-11.51c-.792 0-1.432.648-1.432 1.438l-.008 13.95 3.88-3.877h9.07c.79 0 1.44-.648 1.44-1.438l-.002-8.635c0-.79-.647-1.438-1.438-1.438zm-2.16 6.476zM23.333 404.04c-.413-.41-.888-.6-1.46-.6H11.127c-.57 0-1.062.205-1.458.6-.413.413-.603.89-.603 1.46v14.047c0 .57.207 1.062.603 1.458.412.412.888.603 1.46.603h10.746c.57 0 1.063-.206 1.46-.603.41-.412.6-.888.6-1.458V405.5c0-.57-.205-1.062-.6-1.46zm-6.247 16.505c-.158.158-.364.238-.586.238-.222 0-.412-.08-.586-.238-.16-.158-.238-.364-.238-.587 0-.222.08-.41.238-.586.158-.16.364-.254.586-.254.222 0 .412.08.586.254.16.16.24.364.24.586 0 .223-.08.43-.24.587zm5.2-2.647c0 .11-.047.207-.126.285-.08.08-.175.127-.286.127H11.127c-.112 0-.207-.048-.286-.127-.078-.078-.126-.175-.126-.285v-12.4c0-.11.048-.204.127-.283.08-.08.175-.127.287-.127h10.747c.11 0 .207.047.286.127.08.08.127.174.127.284v12.398zM8.02 438.692c-.414.413-.603.888-.603 1.46v10.747c0 .57.206 1.062.602 1.46.41.41.887.6 1.457.6h14.046c.57 0 1.062-.206 1.458-.6.415-.415.604-.89.604-1.46v-10.75c0-.57-.206-1.062-.603-1.458-.41-.413-.886-.603-1.457-.603H9.477c-.57 0-1.062.206-1.458.602zm16.502 6.247c.158.157.238.363.238.585 0 .222-.08.412-.238.586-.16.16-.364.24-.587.24-.222 0-.412-.08-.586-.24-.16-.157-.255-.363-.255-.585 0-.222.08-.412.254-.586.157-.16.363-.24.585-.24.223 0 .428.08.587.24zm-2.648-5.2c.11 0 .207.046.286.126.08.08.127.173.127.285v10.75c0 .11-.048.206-.127.285-.08.08-.175.127-.286.127H9.477c-.11 0-.206-.048-.285-.127-.08-.08-.127-.174-.127-.286v-10.75c0-.11.048-.205.127-.284.08-.08.174-.127.285-.127h12.397z" fill="#82879b"/><g fill="#82879b"><path d="M10.623 483.06h11.754c.48 0 .89-.188 1.222-.55.343-.376.502-.812.502-1.332v-8.315c0-.52-.172-.97-.503-1.33-.347-.378-.745-.552-1.223-.552H10.623c-.478 0-.89.19-1.22.552-.346.376-.505.81-.505 1.332v8.314c0 .52.173.97.504 1.332.332.362.743.55 1.22.55zm-.345-10.197c0-.1.04-.187.106-.26.066-.072.146-.115.24-.115h11.753c.093 0 .173.043.24.115.065.073.106.16.106.26v8.315c0 .1-.04.188-.106.26-.067.072-.147.115-.24.115H10.623c-.093 0-.173-.043-.24-.116-.065-.07-.105-.158-.105-.26v-8.314zM25.15 483.812H6.126v1.13c0 .32.17.58.503.797.344.217.743.332 1.22.332h17.3c.478 0 .89-.115 1.22-.333.346-.218.505-.493.505-.798v-1.13H25.15zm-7.788 1.13h-1.724c-.12 0-.172-.057-.172-.187s.052-.19.172-.19h1.724c.12 0 .173.06.173.19s-.053.187-.173.187z"/></g><path d="M24.336 511.123l-2.287-2.287c-.11-.11-.253-.164-.407-.164-.152 0-.284.055-.404.164-.11.11-.165.252-.165.405v1.14H17.65v-3.426h1.137c.154 0 .285-.055.405-.165.11-.11.164-.252.164-.405 0-.153-.055-.284-.164-.405l-2.288-2.288c-.11-.11-.25-.164-.404-.164-.153 0-.285.055-.405.164l-2.287 2.288c-.11.11-.164.252-.164.405 0 .153.054.285.164.404.11.11.252.164.405.164h1.138v3.425h-3.425v-1.14c0-.152-.054-.284-.164-.404-.108-.11-.25-.164-.404-.164-.153 0-.284.055-.405.164l-2.286 2.287c-.11.11-.164.252-.164.406 0 .152.055.284.164.404l2.287 2.287c.11.11.253.165.406.165.153 0 .285-.054.405-.164.11-.108.165-.25.165-.404v-1.138h3.426v3.425h-1.137c-.153 0-.285.055-.405.164-.11.11-.164.252-.164.406 0 .153.054.284.164.405l2.287 2.287c.11.11.252.164.405.164.153 0 .285-.055.404-.165l2.288-2.287c.11-.11.164-.252.164-.405 0-.154-.055-.285-.164-.406-.11-.11-.25-.164-.405-.164H17.65v-3.425h3.425v1.138c0 .153.054.285.164.405.108.11.25.165.403.165.154 0 .285-.054.406-.164l2.286-2.286c.11-.11.164-.252.164-.405 0-.154-.055-.285-.164-.406zM18.497 611.41c-.09-.028-.652-.282-.3-1.352h-.005c.917-.945 1.618-2.466 1.618-3.963 0-2.3-1.53-3.508-3.31-3.508s-3.3 1.207-3.3 3.508c0 1.503.696 3.03 1.618 3.973.36.943-.283 1.294-.418 1.342-1.862.674-4.048 1.903-4.048 3.116v.453c0 1.65 3.202 2.027 6.166 2.027 2.968 0 6.13-.376 6.13-2.028v-.454c0-1.25-2.196-2.468-4.15-3.116z" fill="#82879b"/><path d="M44.61 23.21l5.348 2.983v-1.666c4.6-.377 8.2-3.827 8.2-8.027 0-2.187-.608-4.168-2.194-5.62l-2.25 1.832c1.09.967 1.395 2.307 1.395 3.788 0 2.696-2.24 4.924-5.152 5.287v-1.56l-5.35 2.984h.002zM54.773 9.79l-5.73-2.98v1.665c-4.6.377-8.202 3.825-8.202 8.026 0 2.19.598 4.172 2.185 5.625l2.252-1.834c-1.093-.966-1.387-2.306-1.387-3.79 0-2.694 2.24-4.926 5.152-5.288v1.562l5.73-2.983zM56.375 42.808c0-.443-.362-.806-.806-.806H43.18c-.443 0-.805.363-.805.806v12.59c0 .444.362.806.806.806h8.562l4.624-4.658.01-8.738zM50.7 55.038v-4.443h4.444L50.7 55.037zM47.268 86.293l-3.274-3.29c-.153-.152-.375-.215-.584-.16-.21.054-.375.215-.435.423L40.9 88.64c-.064.215-.005.448.154.607.116.116.384.19.604.155l5.35-2.085c.206-.06.366-.227.42-.438.053-.21-.007-.434-.16-.587z" fill="#fff"/><path d="M52.41 73.914l3.907 3.924-8.403 8.44-3.906-3.923 8.402-8.44zm0-1.687c-.215 0-.43.082-.593.246l-9.244 9.287c-.326.328-.326.864 0 1.19l4.747 4.77c.164.165.38.247.594.247.215 0 .43-.082.593-.247l9.244-9.285c.328-.33.328-.865 0-1.193l-4.746-4.77c-.163-.163-.378-.245-.593-.245z" fill="#fff"/><path d="M44.847 81.23l-1.294 1.3 4.233 4.252 1.294-1.3-4.233-4.253zM47.02 79.046l-.77.774 4.232 4.254.772-.775-4.234-4.254zM57.388 90.636H43.696c-.407 0-.737.36-.737-.05s.33-.74.736-.74h13.692c.408 0 .738.014.738.423 0 .408-.33.367-.738.367zM56.62 121.03l-1.627 1.636c-.298.3-.784.3-1.083 0l-4.065-4.087-4.067 4.086c-.297.3-.785.3-1.084-.002l-1.627-1.633c-.297-.3-.297-.787 0-1.09l4.066-4.088-4.065-4.086c-.297-.302-.297-.793 0-1.09l1.626-1.636c.3-.303.787-.303 1.084 0l4.066 4.087 4.065-4.087c.3-.303.785-.303 1.082 0l1.627 1.633c.298.3.298.79 0 1.093l-4.064 4.086 4.064 4.088c.298.303.298.79 0 1.09zM44.046 145.48c-.254-.8-.043-1.665.55-2.256.58-.58 1.466-.8 2.255-.546l1.9.605c-.424-1.684-1.937-2.936-3.753-2.936-2.145 0-3.884 1.74-3.884 3.884 0 2.106 1.678 3.81 3.77 3.873l-.837-2.623z" fill="#fff"/><path d="M57.926 154.364l-4.325-4.327 3.15-1.36c.245-.104.398-.35.385-.616-.013-.265-.19-.495-.444-.576l-10.324-3.288c-.227-.073-.476-.013-.644.156-.17.17-.23.418-.157.645l3.288 10.326c.08.254.31.43.577.444.265.013.51-.14.617-.385l1.36-3.15 4.325 4.326c.12.12.282.187.452.187.17 0 .33-.067.45-.187l1.292-1.292c.25-.25.25-.653 0-.902zm0 0z" fill="#fff"/><g fill="#fff"><path d="M57.92 178.238l-1.812-2.47c-.204-.216-.544-.205-.763.008l-1.832 2.57c-.213.21-.274.66.006.66h.696v8.256c0 .056.026.9-.113.9-1.356-3.82-2.3-10.73-4.02-10.73h-3.586c-.687 0-1.713.673-1.713 3.15v6.61c0 1.096.096 2.392-.4 2.392-.368 0-.386-1.294-.386-2.393v-9.758h-1.475c-.834 0-1.67.673-1.67 1.5l.002 8.26c0 2.518.81 3.602 2.477 3.602h2.478c1.66 0 2.118-1.126 2.118-3.603v-6.607c0-.28.032-1.032.203-1.032 1.394 3.724 2.437 11.244 4.29 11.244h-.003 3.304s.09.002.07 0c.8-.05 1.57-1.115 1.57-3.532v-8.257h.564c.383 0 .196-.55-.004-.767zM45.534 174.14c0-1.058-1.048-1.915-2.34-1.915-1.292 0-2.34.857-2.34 1.914v2.766s.142-.852 1.79-.852c2.11 0 2.89-.858 2.89-1.915z"/></g><g fill="#fff"><path d="M39.073 213.83l7.55-3.124v2.302l-4.616 1.796 4.617 1.79v2.3l-7.55-3.123v-1.94zM49.4 209.318h2.157l-2.492 11.21h-2.158l2.492-11.21zM59.39 213.83v1.94l-7.55 3.125v-2.302l4.617-1.79-4.617-1.795v-2.302l7.55 3.124z"/></g><g fill="#fff"><path d="M49.56 247.106h-7v-5h7v5zM57.497 247.106h-7v-5h7v5zM49.56 253.106h-7v-5h7v5zM57.497 253.106h-7v-5h7v5z"/></g><path d="M55.95 279.29c0-3.278-2.892-7.025-7.47-7.025-4.097 0-7.23 3.044-7.23 7.024 0 3.278 2.65 7.258 7.23 7.258 1.397 0 2.918-.48 4.22-1.362l3.687 3.58 1.363-1.324-3.607-3.507c1.084-1.202 1.806-2.78 1.806-4.646zm-1.446 0c0 3.278-2.892 5.854-6.024 5.854-3.856 0-5.785-3.044-5.785-5.855 0-3.278 2.41-5.62 5.785-5.62 3.373 0 6.024 2.342 6.024 5.62zM58.393 338.857c-.31-.312-.67-.455-1.1-.455H41.72c-.43 0-.8.155-1.1.455-.31.31-.453.67-.453 1.1v10.61c0 .43.155.8.454 1.1.31.312.668.455 1.098.455h5.292c0 .252-.048.503-.155.767-.108.263-.204.49-.312.682-.108.192-.154.336-.154.43 0 .168.058.312.177.445.12.118.276.19.443.19h4.98c.167 0 .31-.06.443-.19.12-.12.178-.277.178-.444 0-.085-.047-.228-.154-.42-.107-.19-.203-.43-.31-.694-.108-.265-.156-.516-.156-.755h5.292c.43 0 .8-.156 1.1-.454.31-.312.453-.67.453-1.102V339.97c.012-.43-.144-.803-.442-1.113zm-.788 9.22c0 .082-.037.154-.096.215-.06.06-.133.095-.216.095H41.718c-.084 0-.156-.035-.215-.095-.06-.06-.096-.133-.096-.216v-8.118c0-.083.036-.156.096-.216.06-.06.13-.095.215-.095h15.576c.083 0 .155.035.215.095.058.06.095.133.095.216v8.118z" fill="#fff"/><g><path d="M53.05 371.13h-7.1c-1.07 0-1.935.868-1.935 1.937v12.91c0 1.067.866 1.935 1.935 1.935h7.1c1.07 0 1.936-.868 1.936-1.936v-12.91c0-1.067-.867-1.935-1.936-1.935zm-4.195.646h1.29c.18 0 .324.144.324.323 0 .178-.146.32-.325.32h-1.29c-.178 0-.323-.142-.323-.32 0-.18.145-.324.323-.324zm.645 15.347c-.455 0-.825-.37-.825-.825 0-.456.37-.825.825-.825.456 0 .825.37.825.825 0 .456-.37.825-.825.825zm4.195-2.76c0 .177-.144.322-.323.322h-7.744c-.18 0-.322-.145-.322-.322V373.39c0-.18.143-.323.322-.323h7.744c.18 0 .323.144.323.323v10.973z" fill="#fff"/></g><g><path d="M50.48 538.968c.34 0 .68.126.945.377.548.52.57 1.388.05 1.936l-3.064 3.223 3.06 3.2c.524.547.505 1.413-.042 1.936-.547.522-1.413.5-1.936-.045l-3.963-4.142c-.507-.53-.508-1.36-.005-1.89l3.963-4.17c.27-.282.63-.425.993-.425zm0 0z" fill="#fff"/></g><g><path d="M48.52 583.02c-.34 0-.68-.125-.945-.376-.548-.52-.57-1.39-.05-1.938l3.064-3.22-3.06-3.2c-.524-.547-.505-1.413.042-1.936.547-.524 1.413-.503 1.936.043l3.963 4.142c.507.53.508 1.36.005 1.89l-3.963 4.17c-.27.283-.63.425-.993.425zm0 0z" fill="#fff"/></g><g><path d="M55.645 636.304h-11.51c-.792 0-1.432.648-1.432 1.438l-.008 13.95 3.878-3.877h9.072c.79 0 1.438-.648 1.438-1.438v-8.635c0-.79-.648-1.438-1.438-1.438zm-2.16 6.476z" fill="#fff"/></g><g><path d="M56.333 404.04c-.412-.41-.888-.6-1.46-.6H44.127c-.57 0-1.06.205-1.458.6-.412.413-.603.89-.603 1.46v14.047c0 .57.207 1.062.603 1.458.412.412.888.603 1.458.603h10.748c.57 0 1.063-.206 1.46-.603.41-.412.6-.888.6-1.458l.002-14.048c0-.57-.208-1.062-.603-1.46zm-6.246 16.505c-.158.158-.365.238-.587.238-.222 0-.412-.08-.586-.238-.16-.158-.238-.364-.238-.587 0-.222.08-.41.238-.586.158-.16.364-.254.586-.254.222 0 .412.08.587.254.158.16.238.364.238.586 0 .223-.08.43-.238.587zm5.2-2.647c0 .11-.048.207-.127.285-.08.08-.175.127-.286.127H44.126c-.11 0-.206-.048-.285-.127-.078-.078-.126-.175-.126-.285v-12.4c0-.11.048-.204.127-.283.08-.08.175-.127.286-.127h10.748c.11 0 .206.047.286.127.08.08.126.174.126.284v12.398z" fill="#fff"/></g><g><path d="M41.02 438.692c-.414.413-.603.888-.603 1.46v10.747c0 .57.205 1.062.602 1.46.412.41.887.6 1.457.6h14.046c.57 0 1.062-.206 1.458-.6.415-.415.604-.89.604-1.46v-10.75c0-.57-.206-1.062-.603-1.458-.41-.413-.886-.603-1.457-.603H42.477c-.57 0-1.062.206-1.458.602zm16.502 6.247c.158.157.238.363.238.585 0 .222-.08.412-.237.586-.16.16-.366.24-.588.24-.222 0-.412-.08-.586-.24-.16-.157-.255-.363-.255-.585 0-.222.08-.412.254-.586.157-.16.363-.24.585-.24.222 0 .428.08.587.24zm-2.648-5.2c.11 0 .207.046.286.126.08.08.127.173.127.285v10.75c0 .11-.048.206-.127.285-.08.08-.175.127-.286.127H42.477c-.11 0-.205-.048-.285-.127-.08-.08-.127-.174-.127-.286v-10.75c0-.11.047-.205.127-.284.08-.08.174-.127.285-.127h12.397z" fill="#fff"/></g><g fill="#fff"><path d="M43.623 483.06h11.755c.477 0 .89-.188 1.22-.55.345-.376.505-.812.505-1.332v-8.315c0-.52-.172-.97-.504-1.33-.347-.378-.745-.552-1.222-.552H43.623c-.477 0-.89.19-1.22.552-.346.376-.505.81-.505 1.332v8.314c0 .52.172.97.504 1.332.332.362.743.55 1.22.55zm-.345-10.197c0-.1.04-.187.106-.26.066-.072.146-.115.24-.115h11.754c.093 0 .172.043.238.115.067.073.107.16.107.26v8.315c0 .1-.04.188-.107.26-.066.072-.145.115-.238.115H43.623c-.093 0-.173-.043-.24-.116-.066-.07-.105-.158-.105-.26v-8.314zM58.15 483.812H39.125v1.13c0 .32.173.58.504.797.345.217.742.332 1.22.332h17.3c.478 0 .89-.115 1.22-.333.346-.218.505-.493.505-.798v-1.13H58.15zm-7.788 1.13h-1.724c-.12 0-.172-.057-.172-.187s.053-.19.172-.19h1.724c.12 0 .173.06.173.19s-.053.187-.173.187z"/></g><g><path d="M57.336 511.123l-2.287-2.287c-.11-.11-.253-.164-.406-.164-.154 0-.285.055-.405.164-.11.11-.166.252-.166.405v1.14H50.65v-3.426h1.137c.154 0 .285-.055.404-.165.11-.11.166-.252.166-.405 0-.153-.055-.284-.165-.405l-2.286-2.288c-.11-.11-.252-.164-.404-.164-.153 0-.285.055-.405.164l-2.287 2.288c-.11.11-.164.252-.164.405 0 .153.054.285.164.404.11.11.252.164.405.164h1.138v3.425h-3.424v-1.14c0-.152-.055-.284-.165-.404-.108-.11-.25-.164-.404-.164-.153 0-.284.055-.405.164l-2.286 2.287c-.11.11-.164.252-.164.406 0 .152.055.284.164.404l2.287 2.287c.11.11.253.165.406.165.154 0 .285-.054.405-.164.11-.108.166-.25.166-.404v-1.138h3.425v3.425h-1.137c-.153 0-.285.055-.405.164-.11.11-.164.252-.164.406 0 .153.054.284.164.405l2.287 2.287c.11.11.252.164.405.164.152 0 .285-.055.404-.165l2.287-2.287c.11-.11.166-.252.166-.405 0-.154-.055-.285-.165-.406-.108-.11-.25-.164-.403-.164H50.65v-3.425h3.424v1.138c0 .153.055.285.165.405.108.11.25.165.404.165.153 0 .284-.054.405-.164l2.286-2.286c.11-.11.164-.252.164-.405 0-.154-.055-.285-.164-.406z" fill="#fff"/></g><g><path d="M51.497 611.41c-.09-.028-.652-.282-.3-1.352h-.006c.92-.945 1.62-2.466 1.62-3.963 0-2.3-1.53-3.508-3.31-3.508s-3.302 1.207-3.302 3.508c0 1.503.697 3.03 1.62 3.973.36.943-.283 1.294-.418 1.342-1.862.674-4.047 1.903-4.047 3.116v.453c0 1.65 3.202 2.027 6.165 2.027 2.967 0 6.13-.376 6.13-2.028v-.454c0-1.25-2.196-2.468-4.15-3.116z" fill="#fff"/></g><g><path d="M49.42 307.024L41 314.686h2.524v5.448h4.21v-3.892h3.37v3.892h4.21v-5.448h2.526l-2.526-2.297v-5.49H53.63v3.955l-4.21-3.83z" fill="#fff"/></g></svg>