<svg version="1.1" xmlns="http://www.w3.org/2000/svg" xmlns:xlink="http://www.w3.org/1999/xlink" x="0px" y="0px"
	 width="2000px" height="2000px" viewBox="0 0 2000 2000" enable-background="new 0 0 2000 2000" xml:space="preserve">

<path fill="#434343" d="M3.006,57.434v1892.069c0,0-2.638,47.497,99.747,47.497h1794.5
	c102.386,0,99.747-47.497,99.747-47.497V57.434c0,0,2.639-53.434-99.747-53.434h-1794.5C0.368,4,3.006,57.434,3.006,57.434z"/>

<path fill="none" stroke="#5F6161" stroke-width="2" d="M5.006,59.327v1888.271c0,0-2.633,47.401,99.547,47.401h1790.893
	c102.181,0,99.547-47.401,99.547-47.401V59.327c0,0,2.634-53.327-99.547-53.327H104.553C2.374,6,5.006,59.327,5.006,59.327z"/>
</svg>
