<svg version="1.1" xmlns="http://www.w3.org/2000/svg" xmlns:xlink="http://www.w3.org/1999/xlink" x="0px" y="0px"
	 width="2000px" height="2000px" viewBox="0 0 2000 2000" enable-background="new 0 0 2000 2000" xml:space="preserve">
<path fill="#434343" d="M56.937,1997.497h1892.069c0,0,47.497,2.638,47.497-99.747V103.25c0-102.386-47.497-99.747-47.497-99.747
	H56.937c0,0-53.434-2.639-53.434,99.747v1794.5C3.503,2000.135,56.937,1997.497,56.937,1997.497z"/>
<path fill="none" stroke="#5F6161" stroke-width="2" d="M58.83,1995.497h1888.271c0,0,47.401,2.633,47.401-99.547V105.057
	c0-102.181-47.401-99.547-47.401-99.547H58.83c0,0-53.327-2.634-53.327,99.547V1895.95
	C5.503,1998.129,58.83,1995.497,58.83,1995.497z"/>
</svg>
