<svg xmlns="http://www.w3.org/2000/svg" width="1250px" height="866px">
  <defs>
    <linearGradient id="gradient1" x1="767.0672607421875" y1="492.79296875" x2="1607.8179931640625" y2="846.7056884765625" gradientUnits="userSpaceOnUse">
      <stop stop-color="#333333" stop-opacity="1" offset="1%"/>
      <stop stop-color="#666666" stop-opacity="1" offset="98%"/>
    </linearGradient>
    <radialGradient id="gradient2" cx="47.358%" cy="47.0734%" r="49.9977%">
      <stop stop-color="#272727" stop-opacity="1" offset="1%"/>
      <stop stop-color="#080808" stop-opacity="1" offset="99%"/>
    </radialGradient>
    <linearGradient id="gradient3" x1="1188.7991943359375" y1="468.1513671875" x2="1190.0382080078125" y2="397.15924072265625" gradientUnits="userSpaceOnUse">
      <stop stop-color="#4d4d4d" stop-opacity="1" offset="1%"/>
      <stop stop-color="#717172" stop-opacity="1" offset="38%"/>
      <stop stop-color="#747476" stop-opacity="1" offset="55%"/>
      <stop stop-color="#4a4a4a" stop-opacity="1" offset="99%"/>
    </linearGradient>
  </defs>
  <path d="M 1187.0023 866 L 63.0449 866 C 28.3964 866 0.0474 837.6504 0.0474 803 L 0.0474 63 C 0.0474 28.3501 28.3964 0 63.0449 0 L 1187.0023 0 C 1221.6504 0 1249.9999 28.3501 1249.9999 63 L 1249.9999 803 C 1249.9999 837.6504 1221.6504 866 1187.0023 866 Z" fill="#62656b"/>
  <path d="M 1181.0026 858 L 69.0447 858 C 35.4962 858 8.0471 830.5498 8.0471 797 L 8.0471 69 C 8.0471 35.4502 35.4962 8 69.0447 8 L 1181.0026 8 C 1214.5511 8 1242.0002 35.4502 1242.0002 69 L 1242.0002 797 C 1242.0002 830.5498 1214.5511 858 1181.0026 858 Z" fill="url(#gradient1)"/>
  <g opacity="0.502">
    <path d="M 1135.9564 49 L 1135.9564 819 L 111.9957 819 L 111.9957 49 L 1135.9564 49 L 1135.9564 49 ZM 1136.9564 48 L 110.9957 48 L 110.9957 820 L 1136.9564 820 L 1136.9564 48 L 1136.9564 48 Z" fill="#5f5f5f"/>
  </g>
  <path d="M 112.0694 48.9741 L 1136.0297 48.9741 L 1136.0297 70.9741 L 112.0694 70.9741 L 112.0694 48.9741 L 112.0694 48.9741 Z" fill="#000000"/>
  <path d="M 119.0428 61 L 119.0428 65 L 121.0427 65 L 121.0427 61 L 119.0428 61 ZM 123.0426 60 L 123.0426 65 L 125.0426 65 L 125.0426 60 L 123.0426 60 ZM 127.0425 58 L 127.0425 65 L 129.0424 65 L 129.0424 58 L 127.0425 58 ZM 131.0423 57 L 131.0423 65 L 133.0423 65 L 133.0423 57 L 131.0423 57 ZM 135.0422 54 L 135.0422 65 L 137.0421 65 L 137.0421 54 L 135.0422 54 Z" fill="#363636"/>
  <path d="M 1129.0045 61 L 1129.0045 58 L 1131.0045 58 L 1131.0045 61 L 1129.0045 61 ZM 1129.0045 54 L 1110.0052 54 L 1110.0052 65 L 1129.0045 65 L 1129.0045 63 L 1133.0044 63 L 1133.0044 56 L 1129.0045 56 L 1129.0045 54 ZM 1127.0046 56 L 1127.0046 63 L 1112.0052 63 L 1112.0052 56 L 1127.0046 56 ZM 1113.0051 57 L 1113.0051 62 L 1118.005 62 L 1118.005 57 L 1113.0051 57 Z" fill="#363636"/>
  <g>
    <path d="M 52.4907 432.9932 C 52.4907 429.1279 55.6243 425.9932 59.4899 425.9932 C 63.356 425.9932 66.4901 429.1279 66.4901 432.9932 C 66.4901 436.8599 63.356 439.9932 59.4899 439.9932 C 55.6243 439.9932 52.4907 436.8599 52.4907 432.9932 Z" stroke="#242424" stroke-width="1" fill="url(#gradient2)"/>
  </g>
  <path d="M 1164.3088 457.7622 C 1178.1677 471.6235 1200.6571 471.6235 1214.5297 457.749 C 1228.3767 443.9033 1228.3835 421.4082 1214.5248 407.5444 C 1200.6669 393.6855 1178.1765 393.6968 1164.3293 407.5444 C 1150.455 421.4219 1150.451 443.9058 1164.3088 457.7622 ZM 1211.6244 410.4453 C 1223.8906 422.7065 1223.8906 442.6094 1211.64 454.8574 C 1199.3661 467.1348 1179.4617 467.1348 1167.2003 454.8687 C 1154.9283 442.5981 1154.942 422.7021 1167.214 410.4297 C 1179.4617 398.1836 1199.3524 398.1724 1211.6244 410.4453 Z" fill="url(#gradient3)"/>
</svg>