<svg xmlns="http://www.w3.org/2000/svg" xmlns:xlink="http://www.w3.org/1999/xlink" width="866px" height="1250px">
  <defs>
    <linearGradient id="gradient1" x1="373.1833190917969" y1="767.043701171875" x2="19.270915985107422" y2="1607.7935791015625" gradientUnits="userSpaceOnUse">
      <stop stop-color="#333333" stop-opacity="1" offset="1%"/>
      <stop stop-color="#666666" stop-opacity="1" offset="98%"/>
    </linearGradient>
    <radialGradient id="gradient2" cx="52.9213%" cy="47.3206%" r="49.9964%">
      <stop stop-color="#272727" stop-opacity="1" offset="1%"/>
      <stop stop-color="#080808" stop-opacity="1" offset="99%"/>
    </radialGradient>
    <linearGradient id="gradient3" x1="433.987548828125" y1="1153.902099609375" x2="432.74847412109375" y2="1224.8875732421875" gradientUnits="userSpaceOnUse">
      <stop stop-color="#4d4d4d" stop-opacity="1" offset="1%"/>
      <stop stop-color="#717172" stop-opacity="1" offset="38%"/>
      <stop stop-color="#747476" stop-opacity="1" offset="55%"/>
      <stop stop-color="#4a4a4a" stop-opacity="1" offset="99%"/>
    </linearGradient>
  </defs>
  <path d="M 0.0234 1186.9789 L 0.0234 63.0215 C 0.0234 28.3729 28.3736 0.0239 63.0235 0.0239 L 803.0244 0.0239 C 837.6738 0.0239 866.0244 28.3729 866.0244 63.0215 L 866.0244 1186.9789 C 866.0244 1221.6281 837.6738 1249.9766 803.0244 1249.9766 L 63.0235 1249.9766 C 28.3736 1249.9766 0.0234 1221.6281 0.0234 1186.9789 Z" fill="#62656b"/>
  <path d="M 7.9761 1180.9791 L 7.9761 69.0213 C 7.9761 35.4728 35.4263 8.0236 68.9761 8.0236 L 796.9765 8.0236 C 830.5264 8.0236 857.9766 35.4728 857.9766 69.0213 L 857.9766 1180.9791 C 857.9766 1214.5277 830.5264 1241.9768 796.9765 1241.9768 L 68.9761 1241.9768 C 35.4263 1241.9768 7.9761 1214.5277 7.9761 1180.9791 Z" fill="url(#gradient1)"/>
  <g opacity="0.502">
    <path d="M 816.9765 110.0198 L 816.9765 1137 L 48.9761 1137 L 48.9761 110.0198 L 816.9765 110.0198 L 816.9765 110.0198 ZM 817.9765 109.0198 L 47.9761 109.0198 L 47.9761 1138 L 817.9765 1138 L 817.9765 109.0198 L 817.9765 109.0198 Z" fill="#5f5f5f"/>
  </g>
  <path d="M 48.9761 110.0198 L 816.9765 110.0198 L 816.9765 132.0189 L 48.9761 132.0189 L 48.9761 110.0198 L 48.9761 110.0198 Z" fill="#000000"/>
  <path d="M 55.9761 123.0193 L 55.9761 127.0191 L 57.9761 127.0191 L 57.9761 123.0193 L 55.9761 123.0193 ZM 59.9761 122.0193 L 59.9761 127.0191 L 61.9761 127.0191 L 61.9761 122.0193 L 59.9761 122.0193 ZM 63.9761 120.0194 L 63.9761 127.0191 L 65.9761 127.0191 L 65.9761 120.0194 L 63.9761 120.0194 ZM 67.9761 119.0194 L 67.9761 127.0191 L 69.9761 127.0191 L 69.9761 119.0194 L 67.9761 119.0194 ZM 71.9761 116.0195 L 71.9761 127.0191 L 73.9761 127.0191 L 73.9761 116.0195 L 71.9761 116.0195 Z" fill="#363636"/>
  <path d="M 808.9765 122.0193 L 808.9765 119.0194 L 810.9765 119.0194 L 810.9765 122.0193 L 808.9765 122.0193 ZM 808.9765 115.0196 L 789.9765 115.0196 L 789.9765 126.0191 L 808.9765 126.0191 L 808.9765 124.0192 L 812.9765 124.0192 L 812.9765 117.0195 L 808.9765 117.0195 L 808.9765 115.0196 ZM 806.9765 117.0195 L 806.9765 124.0192 L 791.9765 124.0192 L 791.9765 117.0195 L 806.9765 117.0195 ZM 792.9765 118.0195 L 792.9765 123.0193 L 797.9765 123.0193 L 797.9765 118.0195 L 792.9765 118.0195 Z" fill="#363636"/>
  <g>
    <path d="M 433.0305 52.4668 C 436.8962 52.4668 440.031 55.6009 440.031 59.4665 C 440.031 63.3321 436.8962 66.4662 433.0305 66.4662 C 429.1643 66.4662 426.0305 63.3321 426.0305 59.4665 C 426.0305 55.6009 429.1643 52.4668 433.0305 52.4668 Z" stroke="#242424" stroke-width="1" fill="url(#gradient2)"/>
  </g>
  <path d="M 408.2614 1164.2864 C 394.4001 1178.1443 394.4001 1200.6346 408.2751 1214.5062 C 422.1204 1228.3534 444.616 1228.3602 458.4792 1214.5023 C 472.3377 1200.6434 472.3269 1178.1531 458.4792 1164.3069 C 444.6023 1150.4325 422.1184 1150.4276 408.2614 1164.2864 ZM 455.5789 1211.6011 C 443.3171 1223.8672 423.4143 1223.8672 411.1667 1211.6177 C 398.8894 1199.3428 398.8894 1179.4382 411.1555 1167.177 C 423.4255 1154.9059 443.322 1154.9186 455.5945 1167.1907 C 467.8396 1179.4382 467.8513 1199.3291 455.5789 1211.6011 Z" fill="url(#gradient3)"/>
</svg>