<svg xmlns="http://www.w3.org/2000/svg" width="715" height="367"><g><linearGradient id="a" gradientUnits="userSpaceOnUse" x1="56.38" y1="45.38" x2="852.38" y2="45.38" gradientTransform="matrix(1 0 0 -1 -50.88 226.88)"><stop offset="0" stop-color="#333"/><stop offset=".994" stop-color="#333"/></linearGradient><path fill="url(#a)" d="M55.5.5h608c27.614 0 50 22.386 50 50v262c0 27.614-22.386 50-50 50h-608c-27.614 0-50-22.386-50-50v-262c0-27.614 22.386-50 50-50z"/><linearGradient id="b" gradientUnits="userSpaceOnUse" x1="416.205" y1="42.507" x2="1295.205" y2="-327.492" gradientTransform="matrix(1 0 0 -1 -50.88 226.88)"><stop offset="0" stop-color="#333"/><stop offset=".989" stop-color="#666"/></linearGradient><path fill="url(#b)" stroke="#5F6161" stroke-width="2" d="M54.5 3.5h608c25.957 0 47 21.042 47 47v262c0 25.957-21.043 47-47 47h-608c-25.958 0-47-21.043-47-47v-262c0-25.958 21.042-47 47-47z"/><g opacity=".302"><path fill="#999" d="M72.765 150.5c3.167 0 5.735 3.134 5.735 7v49c0 3.866-2.568 7-5.735 7-3.167 0-5.735-3.134-5.735-7v-49c-.001-3.866 2.567-7 5.735-7z"/><path d="M71.235 150.5c3.167 0 5.735 3.134 5.735 7v49c0 3.866-2.568 7-5.735 7-3.167 0-5.735-3.134-5.735-7v-49c0-3.866 2.568-7 5.735-7z"/></g><linearGradient id="c" gradientUnits="userSpaceOnUse" x1="117.144" y1="44.88" x2="128.806" y2="44.88" gradientTransform="matrix(1 0 0 -1 -50.88 226.88)"><stop offset="0" stop-color="#333"/><stop offset=".222" stop-color="#666"/><stop offset=".517" stop-color="#666"/><stop offset=".989" stop-color="#666"/></linearGradient><path fill="url(#c)" d="M72 150.5c3.167 0 5.735 3.134 5.735 7v49c0 3.866-2.568 7-5.735 7-3.167 0-5.735-3.134-5.735-7v-49c0-3.866 2.568-7 5.735-7z"/><linearGradient id="d" gradientUnits="userSpaceOnUse" x1="117.144" y1="44.88" x2="128.615" y2="44.88" gradientTransform="matrix(1 0 0 -1 -50.88 226.88)"><stop offset="0" stop-color="#1E1E1E"/><stop offset=".344" stop-color="#303030"/><stop offset=".989" stop-color="#303030"/></linearGradient><path fill="url(#d)" d="M72 150.5c3.167 0 5.735 3.134 5.735 7v49c0 3.866-2.568 7-5.735 7-3.167 0-5.735-3.134-5.735-7v-49c0-3.866 2.568-7 5.735-7z"/><g opacity=".502"><path fill="#999" d="M72.788 261.443c-4.028 0-7.294-3.265-7.294-7.293 0-4.029 3.266-7.295 7.294-7.295s7.294 3.266 7.294 7.295-3.266 7.293-7.294 7.293z"/><path d="M70.788 261.443c-4.028 0-7.294-3.265-7.294-7.293 0-4.029 3.266-7.295 7.294-7.295s7.294 3.266 7.294 7.295-3.266 7.293-7.294 7.293z"/></g><linearGradient id="e" gradientUnits="userSpaceOnUse" x1="115.374" y1="-27.27" x2="129.962" y2="-27.27" gradientTransform="matrix(1 0 0 -1 -50.88 226.88)"><stop offset="0" stop-color="#1E1E1E"/><stop offset=".344" stop-color="#303030"/><stop offset=".989" stop-color="#303030"/></linearGradient><path fill="url(#e)" d="M71.788 261.443c-4.028 0-7.294-3.265-7.294-7.293 0-4.029 3.266-7.295 7.294-7.295s7.294 3.266 7.294 7.295-3.266 7.293-7.294 7.293z"/><linearGradient id="f" gradientUnits="userSpaceOnUse" x1="674.701" y1="74.584" x2="753.941" y2="3.728" gradientTransform="matrix(1 0 0 -1 -50.88 226.88)"><stop offset="0" stop-color="#333"/><stop offset=".989" stop-color="#666"/></linearGradient><path fill="url(#f)" stroke="#5F6161" stroke-width="2" d="M654.97 215.578c-19.566 0-35.428-15.861-35.428-35.428 0-19.566 15.861-35.428 35.428-35.428s35.428 15.862 35.428 35.428c-.001 19.567-15.862 35.428-35.428 35.428z"/><path stroke="#666" stroke-width="2" d="M642.5 187.79v-14.58c0-2.877 2.333-5.21 5.21-5.21h14.58c2.877 0 5.21 2.333 5.21 5.21v14.58c0 2.878-2.333 5.21-5.21 5.21h-14.58c-2.877 0-5.21-2.332-5.21-5.21z" fill="none"/><rect x="121" y="21" opacity=".502" fill="#333" stroke="#5F5F5F" enable-background="new" width="481" height="321"/><path fill="#666" d="M76 364v-2h36v2c0 1.656-1.343 3-3 3h-30c-1.657 0-3-1.344-3-3z"/><path fill="#666" d="M141 364v-2h29v2c0 1.656-1.343 3-3 3h-23c-1.657 0-3-1.344-3-3z"/><path fill="#666" d="M214 364v-2h29v2c0 1.656-1.343 3-3 3h-23c-1.657 0-3-1.344-3-3z"/><path fill="#666" d="M3 50h2v61h-2c-1.657 0-3-1.343-3-3v-55c0-1.657 1.343-3 3-3z"/></g><linearGradient id="g" gradientUnits="userSpaceOnUse" x1="474.75" y1="58.263" x2="1512.473" y2="-48.9" gradientTransform="matrix(1 0 0 -1 -50.88 226.88)"><stop offset="0" stop-color="#fff"/><stop offset=".983" stop-color="#fff" stop-opacity="0"/></linearGradient><path opacity=".102" fill="url(#g)" enable-background="new" d="M714 301.734v-237.586c3-46.148-25-62.148-63.312-63.148h-324.688c0 139.185 51.372 262.33 116.733 361h210.924c44.343 2 60.343-26.981 60.343-60.266z"/><g><rect x="121.564" y="21.652" width="479.92" height="22"/><path opacity=".2" fill="#fff" enable-background="new" d="M592 34v-3h2v3h-2zm0-8h-19v13h19v-3h4v-7h-4v-3zm-2 2v9h-15v-9h15zm-14 1v7h5v-7h-5z"/><path fill="#fff" d="M130 34v4h2v-4h-2zm4-1v5h2v-5h-2zm4-2v7h2v-7h-2zm4-1v8h2v-8h-2zm4-3v11h2v-11h-2z" opacity=".2"/></g></svg>