<?xml version="1.0" standalone="no"?>
<!DOCTYPE svg PUBLIC "-//W3C//DTD SVG 1.1//EN" "http://www.w3.org/Graphics/SVG/1.1/DTD/svg11.dtd">
<svg id="" viewBox="0 0 478 960" style="background-color:#ffffff00" version="1.1"
	xmlns="http://www.w3.org/2000/svg" xmlns:xlink="http://www.w3.org/1999/xlink" xml:space="preserve"
	x="0px" y="0px" height="960px"
>
	<defs>
		<linearGradient id="gradient1" x1="10.19619369506836" y1="479.5517578125" x2="468.2933349609375" y2="479.5517578125" gradientUnits="userSpaceOnUse">
			<stop stop-color="#333333" stop-opacity="1" offset="1%"/>
			<stop stop-color="#666666" stop-opacity="1" offset="99%"/>
		</linearGradient>
		<radialGradient id="gradient2" cx="50.5701%" cy="50.1275%" r="49.9131%">
			<stop stop-color="#272727" stop-opacity="1" offset="1%"/>
			<stop stop-color="#080808" stop-opacity="1" offset="99%"/>
		</radialGradient>
		<linearGradient id="gradient3" x1="263.2088928222656" y1="880.74267578125" x2="214.04225158691406" y2="919.6688232421875" gradientUnits="userSpaceOnUse">
			<stop stop-color="#4d4d4d" stop-opacity="1" offset="1%"/>
			<stop stop-color="#717172" stop-opacity="1" offset="38%"/>
			<stop stop-color="#747476" stop-opacity="1" offset="55%"/>
			<stop stop-color="#4a4a4a" stop-opacity="1" offset="99%"/>
		</linearGradient>
		<linearGradient id="gradient4" x1="0.4890190362930298" y1="129.9580078125" x2="3.303562879562378" y2="129.9580078125" gradientUnits="userSpaceOnUse">
			<stop stop-color="#595962" stop-opacity="1" offset="1%"/>
			<stop stop-color="#686868" stop-opacity="1" offset="50%"/>
			<stop stop-color="#595962" stop-opacity="1" offset="99%"/>
		</linearGradient>
		<linearGradient id="gradient5" x1="477.99951171875" y1="214.6767578125" x2="475.1849670410156" y2="214.6767578125" gradientUnits="userSpaceOnUse">
			<stop stop-color="#595962" stop-opacity="1" offset="1%"/>
			<stop stop-color="#686868" stop-opacity="1" offset="50%"/>
			<stop stop-color="#595962" stop-opacity="1" offset="99%"/>
		</linearGradient>
		<linearGradient id="gradient6" x1="0.4890190362930298" y1="214.54150390625" x2="3.303562879562378" y2="214.54150390625" gradientUnits="userSpaceOnUse">
			<stop stop-color="#595962" stop-opacity="1" offset="1%"/>
			<stop stop-color="#686868" stop-opacity="1" offset="50%"/>
			<stop stop-color="#595962" stop-opacity="1" offset="99%"/>
		</linearGradient>
		<linearGradient id="gradient7" x1="0.4890190362930298" y1="292.35009765625" x2="3.303562879562378" y2="292.35009765625" gradientUnits="userSpaceOnUse">
			<stop stop-color="#595962" stop-opacity="1" offset="1%"/>
			<stop stop-color="#686868" stop-opacity="1" offset="50%"/>
			<stop stop-color="#595962" stop-opacity="1" offset="99%"/>
		</linearGradient>
		<linearGradient id="gradient8" x1="238.508056640625" y1="847" x2="238.508056640625" y2="112.955810546875" gradientUnits="userSpaceOnUse">
			<stop stop-color="#333333" stop-opacity="1" offset="1%"/>
			<stop stop-color="#666666" stop-opacity="1" offset="99%"/>
		</linearGradient>
	</defs>
	<path d="M 413.7775 960 L 64.7116 960 C 30.9375 960 3.3036 932.3574 3.3036 898.5723 L 3.3036 61.4277 C 3.3036 27.6426 30.9375 0 64.7116 0 L 413.7775 0 C 447.552 0 475.1855 27.6426 475.1855 61.4277 L 475.1855 898.5723 C 475.1855 932.3574 447.552 960 413.7775 960 Z" fill="#525359"/>
	<path d="M 410.695 953.5371 L 67.794 953.5371 C 36.1152 953.5371 10.1962 927.6104 10.1962 895.9209 L 10.1962 63.1836 C 10.1962 31.4941 36.1152 5.5664 67.794 5.5664 L 410.695 5.5664 C 442.3738 5.5664 468.2933 31.4941 468.2933 63.1836 L 468.2933 895.9209 C 468.2933 927.6104 442.3738 953.5371 410.695 953.5371 Z" fill="url(#gradient1)"/>
	<path d="M 409.9278 953.5371 L 68.5617 953.5371 C 36.4607 953.5371 10.1962 927.2646 10.1962 895.1533 L 10.1962 63.9512 C 10.1962 31.8398 36.4607 5.5664 68.5617 5.5664 L 409.9278 5.5664 C 442.0283 5.5664 468.2933 31.8398 468.2933 63.9512 L 468.2933 895.1533 C 468.2933 927.2646 442.0283 953.5371 409.9278 953.5371 Z" stroke="#232323" stroke-width="2" fill="none"/>
	<path d="M 174.2455 51.6543 C 177.674 51.6543 180.4534 54.4336 180.4534 57.8633 C 180.4534 61.293 177.674 64.0732 174.2455 64.0732 C 170.8175 64.0732 168.0381 61.293 168.0381 57.8633 C 168.0381 54.4336 170.8175 51.6543 174.2455 51.6543 Z" stroke="#242424" stroke-width="1" fill="url(#gradient2)"/>
	<path d="M 270.1406 61.8281 L 210.2679 61.8281 C 208.7901 61.8281 207.5813 60.6182 207.5813 59.1406 L 207.5813 58.1641 C 207.5813 56.6865 208.7901 55.4766 210.2679 55.4766 L 270.1406 55.4766 C 271.6179 55.4766 272.8272 56.6865 272.8272 58.1641 L 272.8272 59.1406 C 272.8272 60.6182 271.6179 61.8281 270.1406 61.8281 Z" stroke="#262626" stroke-width="1" fill="#404040"/>
	<path d="M 239.2445 931.3672 C 221.7491 931.3672 207.5725 917.1865 207.5725 899.6855 C 207.5725 882.1855 221.7491 868.0039 239.2445 868.0039 C 256.7394 868.0039 270.9165 882.1855 270.9165 899.6855 C 271.0166 917.0859 256.9405 931.3672 239.2445 931.3672 ZM 239.2445 870.6182 C 223.3577 870.6182 210.388 883.5938 210.388 899.585 C 210.388 915.4766 223.2572 928.5518 239.2445 928.5518 C 255.1303 928.5518 268.101 915.5771 268.101 899.585 C 268.3021 883.5938 255.2313 870.6182 239.2445 870.6182 Z" fill="url(#gradient3)"/>
	<g>
		<path d="M 445.407 130.8096 L 31.6091 130.8096 L 31.6091 846.8096 L 445.407 846.8096 L 445.407 130.8096 Z" fill="none"/>
		<g>
			<path d="M 31.6091 110.8564 L 445.407 110.8564 L 445.407 130.8564 L 31.6091 130.8564 L 31.6091 110.8564 Z" fill="#000000"/>
			<g opacity="0.4">
				<path d="M 412.7184 124.5713 C 412.5154 124.5713 412.2108 124.3682 412.2108 124.0635 L 412.2108 117.46 C 412.2108 117.1553 412.4139 116.9521 412.7184 116.9521 L 431.9107 116.9521 C 432.1137 116.9521 432.4183 117.1553 432.4183 117.46 L 432.4183 124.0635 C 432.4183 124.3682 432.2152 124.5713 431.9107 124.5713 L 412.7184 124.5713 Z" fill="#ffffff"/>
				<path d="M 435.3631 120.7109 C 435.3631 119.6953 434.5505 118.9844 433.6369 118.8828 L 433.6369 117.3584 C 433.6369 116.4443 432.9258 115.835 432.1137 115.835 L 412.7184 115.835 C 411.8048 115.835 411.1957 116.5459 411.1957 117.3584 L 411.1957 123.9629 C 411.1957 124.877 411.9063 125.4863 412.7184 125.4863 L 432.1137 125.4863 C 433.0273 125.4863 433.6369 124.7754 433.6369 123.9629 L 433.6369 122.4385 C 434.5505 122.54 435.3631 121.7275 435.3631 120.7109 ZM 433.2309 124.165 C 433.2309 124.877 432.7228 125.3848 432.0122 125.3848 L 412.6169 125.3848 C 411.9063 125.3848 411.3987 124.877 411.3987 124.165 L 411.3987 117.5615 C 411.3987 116.8506 411.9063 116.3428 412.6169 116.3428 L 432.0122 116.3428 C 432.7228 116.3428 433.2309 116.8506 433.2309 117.5615 L 433.2309 124.165 L 433.2309 124.165 Z" fill="#ffffff"/>
				<path d="M 44.7082 118.0703 C 46.2221 118.0703 47.45 119.2979 47.45 120.8125 C 47.45 122.3281 46.2221 123.5557 44.7082 123.5557 C 43.1938 123.5557 41.9663 122.3281 41.9663 120.8125 C 41.9663 119.2979 43.1938 118.0703 44.7082 118.0703 Z" fill="#ffffff"/>
				<path d="M 51.4104 118.0703 C 52.9244 118.0703 54.1518 119.2979 54.1518 120.8125 C 54.1518 122.3281 52.9244 123.5557 51.4104 123.5557 C 49.896 123.5557 48.6681 122.3281 48.6681 120.8125 C 48.6681 119.2979 49.896 118.0703 51.4104 118.0703 Z" fill="#ffffff"/>
				<path d="M 58.0107 118.0703 C 59.5246 118.0703 60.7526 119.2979 60.7526 120.8125 C 60.7526 122.3281 59.5246 123.5557 58.0107 123.5557 C 56.4963 123.5557 55.2689 122.3281 55.2689 120.8125 C 55.2689 119.2979 56.4963 118.0703 58.0107 118.0703 Z" fill="#ffffff"/>
				<path d="M 64.8141 118.0703 C 66.3285 118.0703 67.5559 119.2979 67.5559 120.8125 C 67.5559 122.3281 66.3285 123.5557 64.8141 123.5557 C 63.2997 123.5557 62.0722 122.3281 62.0722 120.8125 C 62.0722 119.2979 63.2997 118.0703 64.8141 118.0703 Z" fill="#ffffff"/>
				<path d="M 71.6174 118.0703 C 73.1318 118.0703 74.3592 119.2979 74.3592 120.8125 C 74.3592 122.3281 73.1318 123.5557 71.6174 123.5557 C 70.1035 123.5557 68.8755 122.3281 68.8755 120.8125 C 68.8755 119.2979 70.1035 118.0703 71.6174 118.0703 Z" fill="#ffffff"/>
			</g>
		</g>
	</g>
	<path d="M 3.3036 113.0332 L 2.3446 113.0332 C 1.3197 113.0332 0.489 113.8643 0.489 114.8887 L 0.489 145.0273 C 0.489 146.0518 1.3197 146.8828 2.3446 146.8828 L 3.3036 146.8828 L 3.3036 146.8828 L 3.3036 146.8828 " stroke="#4f4f50" stroke-width="1" fill="url(#gradient4)"/>
	<path d="M 475.1855 245.6787 L 476.145 245.6787 C 477.1694 245.6787 478 244.8486 478 243.8232 L 478 185.5313 C 478 184.5059 477.1694 183.6758 476.145 183.6758 L 475.1855 183.6758 L 475.1855 183.6758 L 475.1855 183.6758 " stroke="#4f4f50" stroke-width="1" fill="url(#gradient5)"/>
	<path d="M 3.3036 183.6758 L 2.3446 183.6758 C 1.3197 183.6758 0.489 184.5059 0.489 185.5313 L 0.489 243.5518 C 0.489 244.5762 1.3197 245.4072 2.3446 245.4072 L 3.3036 245.4072 L 3.3036 245.4072 L 3.3036 245.4072 " stroke="#4f4f50" stroke-width="1" fill="url(#gradient6)"/>
	<path d="M 3.3036 261.4844 L 2.3446 261.4844 C 1.3197 261.4844 0.489 262.3145 0.489 263.3389 L 0.489 321.3594 C 0.489 322.3848 1.3197 323.2158 2.3446 323.2158 L 3.3036 323.2158 L 3.3036 323.2158 L 3.3036 323.2158 " stroke="#4f4f50" stroke-width="1" fill="url(#gradient7)"/>
	<path d="M 445.407 110.8564 L 445.407 846.8096 L 31.6091 846.8096 L 31.6091 110.8564 L 445.407 110.8564 L 445.407 110.8564 ZM 446.4066 109.8564 L 445.407 109.8564 L 31.6091 109.8564 L 30.6096 109.8564 L 30.6096 110.8564 L 30.6096 846.8096 L 30.6096 847.8096 L 31.6091 847.8096 L 445.407 847.8096 L 446.4066 847.8096 L 446.4066 846.8096 L 446.4066 110.8564 L 446.4066 109.8564 L 446.4066 109.8564 Z" fill="url(#gradient8)"/>
</svg>