<?xml version="1.0" standalone="no"?>
<!DOCTYPE svg PUBLIC "-//W3C//DTD SVG 1.1//EN" "http://www.w3.org/Graphics/SVG/1.1/DTD/svg11.dtd">
<svg id="" viewBox="0 0 431 880" style="background-color:#ffffff00" version="1.1"
	xmlns="http://www.w3.org/2000/svg" xmlns:xlink="http://www.w3.org/1999/xlink" xml:space="preserve"
	x="0px" y="0px" height="880px"
>
	<defs>
		<linearGradient id="gradient1" x1="8.308029174804688" y1="440.0458984375" x2="421.85784912109375" y2="440.0458984375" gradientUnits="userSpaceOnUse">
			<stop stop-color="#333333" stop-opacity="1" offset="1%"/>
			<stop stop-color="#666666" stop-opacity="1" offset="99%"/>
		</linearGradient>
		<linearGradient id="gradient2" x1="0.7160748839378357" y1="129.02734375" x2="2.0777390003204346" y2="129.02734375" gradientUnits="userSpaceOnUse">
			<stop stop-color="#595962" stop-opacity="1" offset="1%"/>
			<stop stop-color="#686868" stop-opacity="1" offset="50%"/>
			<stop stop-color="#595962" stop-opacity="1" offset="99%"/>
		</linearGradient>
		<linearGradient id="gradient3" x1="430.31365966796875" y1="219.67919921875" x2="427.7486267089844" y2="219.67919921875" gradientUnits="userSpaceOnUse">
			<stop stop-color="#595962" stop-opacity="1" offset="1%"/>
			<stop stop-color="#686868" stop-opacity="1" offset="50%"/>
			<stop stop-color="#595962" stop-opacity="1" offset="99%"/>
		</linearGradient>
		<linearGradient id="gradient4" x1="0.7160748839378357" y1="219.908203125" x2="2.0777390003204346" y2="219.908203125" gradientUnits="userSpaceOnUse">
			<stop stop-color="#595962" stop-opacity="1" offset="1%"/>
			<stop stop-color="#686868" stop-opacity="1" offset="50%"/>
			<stop stop-color="#595962" stop-opacity="1" offset="99%"/>
		</linearGradient>
		<linearGradient id="gradient5" x1="0.7160748839378357" y1="299.3662109375" x2="2.0777390003204346" y2="299.3662109375" gradientUnits="userSpaceOnUse">
			<stop stop-color="#595962" stop-opacity="1" offset="1%"/>
			<stop stop-color="#686868" stop-opacity="1" offset="50%"/>
			<stop stop-color="#595962" stop-opacity="1" offset="99%"/>
		</linearGradient>
		<radialGradient id="gradient6" cx="53.1142%" cy="47.2161%" r="49.9888%">
			<stop stop-color="#272727" stop-opacity="1" offset="1%"/>
			<stop stop-color="#080808" stop-opacity="1" offset="99%"/>
		</radialGradient>
		<linearGradient id="gradient7" x1="194.69622802734375" y1="796.8614501953125" x2="236.16726684570312" y2="849.311767578125" gradientUnits="userSpaceOnUse">
			<stop stop-color="#4d4d4d" stop-opacity="1" offset="1%"/>
			<stop stop-color="#717172" stop-opacity="1" offset="38%"/>
			<stop stop-color="#747476" stop-opacity="1" offset="55%"/>
			<stop stop-color="#4a4a4a" stop-opacity="1" offset="99%"/>
		</linearGradient>
		<linearGradient id="gradient8" x1="215.9077911376953" y1="104.7490234375" x2="215.9077911376953" y2="773.7734375" gradientUnits="userSpaceOnUse">
			<stop stop-color="#333333" stop-opacity="1" offset="1%"/>
			<stop stop-color="#666666" stop-opacity="1" offset="99%"/>
		</linearGradient>
	</defs>
	<path d="M 66.7491 880 L 363.1538 880 C 398.7244 880 427.8274 850.8672 427.8274 815.2617 L 427.8274 64.7383 C 427.8274 29.1323 398.7244 0 363.1538 0 L 66.7491 0 C 31.1785 0 2.0755 29.1323 2.0755 64.7383 L 2.0755 815.2617 C 2.0755 850.8672 31.1785 880 66.7491 880 Z" fill="#525359"/>
	<path d="M 68.8573 873.8525 L 361.3085 873.8525 C 394.6109 873.8525 421.8578 846.5781 421.8578 813.2422 L 421.8578 66.8496 C 421.8578 33.5137 394.6109 6.2393 361.3085 6.2393 L 68.8573 6.2393 C 35.5555 6.2393 8.308 33.5137 8.308 66.8496 L 8.308 813.2422 C 8.308 846.5781 35.5555 873.8525 68.8573 873.8525 Z" fill="url(#gradient1)"/>
	<path d="M 66.3096 873.8525 L 363.8568 873.8525 C 395.7572 873.8525 421.8578 847.7256 421.8578 815.793 L 421.8578 64.2988 C 421.8578 32.3662 395.7572 6.2393 363.8568 6.2393 L 66.3096 6.2393 C 34.4087 6.2393 8.308 32.3662 8.308 64.2988 L 8.308 815.793 C 8.308 847.7256 34.4087 873.8525 66.3096 873.8525 Z" stroke="#232323" stroke-width="2" fill="none"/>
	<path d="M 2.0755 111.6172 L 0.7078 111.6172 L 0.7078 146.4375 L 2.0755 146.4375 L 2.0755 146.4375 " stroke="#4f4f50" stroke-width="1" fill="url(#gradient2)"/>
	<path d="M 427.7528 252.1367 L 430.3288 252.1367 L 430.3288 187.2217 L 427.7528 187.2217 L 427.7528 187.2217 " stroke="#4f4f50" stroke-width="2" fill="url(#gradient3)"/>
	<path d="M 2.0755 188.0469 L 0.7078 188.0469 L 0.7078 251.7695 L 2.0755 251.7695 L 2.0755 251.7695 " stroke="#4f4f50" stroke-width="1" fill="url(#gradient4)"/>
	<path d="M 2.0755 267.5049 L 0.7078 267.5049 L 0.7078 331.2275 L 2.0755 331.2275 L 2.0755 331.2275 " stroke="#4f4f50" stroke-width="1" fill="url(#gradient5)"/>
	<g>
		<path d="M 147.4124 49.5234 C 150.9216 49.5234 153.7659 52.373 153.7659 55.8887 C 153.7659 59.4043 150.9216 62.2539 147.4124 62.2539 C 143.9042 62.2539 141.0594 59.4043 141.0594 55.8887 C 141.0594 52.373 143.9042 49.5234 147.4124 49.5234 Z" stroke="#242424" stroke-width="1" fill="url(#gradient6)"/>
	</g>
	<path d="M 247.3809 58.8135 L 184.159 58.8135 C 183.0357 58.8135 182.1162 57.8936 182.1162 56.7686 L 182.1162 54.458 C 182.1162 53.334 183.0357 52.4141 184.159 52.4141 L 247.3809 52.4141 C 248.5043 52.4141 249.4233 53.334 249.4233 54.458 L 249.4233 56.7686 C 249.4233 57.8936 248.5043 58.8135 247.3809 58.8135 Z" stroke="#262626" stroke-width="1" fill="#404040"/>
	<path d="M 214.9512 856.2988 C 196.3982 856.2988 181.1982 841.0684 181.1982 822.4795 C 181.1982 803.8896 196.3982 788.6602 214.9512 788.6602 C 233.5043 788.6602 248.7048 803.8896 248.7048 822.4795 C 248.7048 841.293 233.5043 856.2988 214.9512 856.2988 ZM 214.9512 791.6836 C 198.0747 791.6836 184.2156 805.5693 184.2156 822.4795 C 184.2156 839.3887 198.0747 853.2754 214.9512 853.2754 C 231.8283 853.2754 245.6873 839.501 245.6873 822.4795 C 245.6873 805.5693 231.8283 791.6836 214.9512 791.6836 Z" fill="url(#gradient7)"/>
	<g>
		<path d="M 28.5967 125.7734 L 403.2189 125.7734 L 403.2189 772.7734 L 28.5967 772.7734 L 28.5967 125.7734 Z" fill="none"/>
		<g>
			<path d="M 28.7049 105.749 L 403.3272 105.749 L 403.3272 125.749 L 28.7049 125.749 L 28.7049 105.749 Z" fill="#000000"/>
			<g opacity="0.4">
				<path d="M 373.1633 119.6738 C 372.9487 119.6738 372.6267 119.4541 372.6267 119.125 L 372.6267 111.998 C 372.6267 111.6689 372.8413 111.4502 373.1633 111.4502 L 393.3309 111.4502 C 393.5456 111.4502 393.8675 111.6689 393.8675 111.998 L 393.8675 119.125 C 393.8675 119.4541 393.6529 119.6738 393.3309 119.6738 L 373.1633 119.6738 Z" fill="#ffffff"/>
				<path d="M 396.8708 115.6162 C 396.8708 114.6299 396.1201 113.7529 395.0475 113.6426 L 395.0475 111.998 C 395.0475 111.1211 394.2963 110.3535 393.4383 110.3535 L 373.056 110.3535 C 372.1975 110.3535 371.4467 111.1211 371.4467 111.998 L 371.4467 119.125 C 371.4467 120.002 372.1975 120.7695 373.056 120.7695 L 393.4383 120.7695 C 394.2963 120.7695 395.0475 120.002 395.0475 119.125 L 395.0475 117.4805 C 396.0128 117.4805 396.8708 116.7129 396.8708 115.6162 ZM 394.6182 119.2344 C 394.6182 120.002 394.0817 120.4414 393.4383 120.4414 L 373.056 120.4414 C 372.3053 120.4414 371.876 119.8926 371.876 119.2344 L 371.876 112.1084 C 371.876 111.3408 372.4126 110.9023 373.056 110.9023 L 393.4383 110.9023 C 394.189 110.9023 394.6182 111.4502 394.6182 112.1084 L 394.6182 119.2344 Z" fill="#ffffff"/>
				<path d="M 37.1798 112.7656 C 38.7793 112.7656 40.0763 114.0908 40.0763 115.7266 C 40.0763 117.3613 38.7793 118.6865 37.1798 118.6865 C 35.5798 118.6865 34.2833 117.3613 34.2833 115.7266 C 34.2833 114.0908 35.5798 112.7656 37.1798 112.7656 Z" fill="#ffffff"/>
				<path d="M 44.2596 112.7656 C 45.8595 112.7656 47.1561 114.0908 47.1561 115.7266 C 47.1561 117.3613 45.8595 118.6865 44.2596 118.6865 C 42.6601 118.6865 41.3636 117.3613 41.3636 115.7266 C 41.3636 114.0908 42.6601 112.7656 44.2596 112.7656 Z" fill="#ffffff"/>
				<path d="M 51.3398 112.7656 C 52.9393 112.7656 54.2363 114.0908 54.2363 115.7266 C 54.2363 117.3613 52.9393 118.6865 51.3398 118.6865 C 49.7404 118.6865 48.4433 117.3613 48.4433 115.7266 C 48.4433 114.0908 49.7404 112.7656 51.3398 112.7656 Z" fill="#ffffff"/>
				<path d="M 58.4201 112.7656 C 60.0196 112.7656 61.3166 114.0908 61.3166 115.7266 C 61.3166 117.3613 60.0196 118.6865 58.4201 118.6865 C 56.8201 118.6865 55.5236 117.3613 55.5236 115.7266 C 55.5236 114.0908 56.8201 112.7656 58.4201 112.7656 Z" fill="#ffffff"/>
				<path d="M 65.4999 112.7656 C 67.0998 112.7656 68.3964 114.0908 68.3964 115.7266 C 68.3964 117.3613 67.0998 118.6865 65.4999 118.6865 C 63.9004 118.6865 62.6039 117.3613 62.6039 115.7266 C 62.6039 114.0908 63.9004 112.7656 65.4999 112.7656 Z" fill="#ffffff"/>
			</g>
		</g>
	</g>
	<path d="M 403.2189 105.749 L 403.2189 772.7734 L 28.5967 772.7734 L 28.5967 105.749 L 403.2189 105.749 L 403.2189 105.749 ZM 404.2179 104.749 L 403.2189 104.749 L 28.5967 104.749 L 27.5977 104.749 L 27.5977 105.749 L 27.5977 772.7734 L 27.5977 773.7734 L 28.5967 773.7734 L 403.2189 773.7734 L 404.2179 773.7734 L 404.2179 772.7734 L 404.2179 105.749 L 404.2179 104.749 L 404.2179 104.749 Z" fill="url(#gradient8)"/>
</svg>