<?xml version="1.0" standalone="no"?>
<!DOCTYPE svg PUBLIC "-//W3C//DTD SVG 1.1//EN" "http://www.w3.org/Graphics/SVG/1.1/DTD/svg11.dtd">
<svg id="" viewBox="0 0 960 479" style="background-color:#ffffff00" version="1.1"
	xmlns="http://www.w3.org/2000/svg" xmlns:xlink="http://www.w3.org/1999/xlink" xml:space="preserve"
	x="0px" y="0px" width="960px"
>
	<defs>
		<linearGradient id="gradient1" x1="479.5517578125" y1="468.9072265625" x2="479.5517578125" y2="10.187559127807617" gradientUnits="userSpaceOnUse">
			<stop stop-color="#333333" stop-opacity="1" offset="1%"/>
			<stop stop-color="#666666" stop-opacity="1" offset="99%"/>
		</linearGradient>
		<radialGradient id="gradient2" cx="50.2371%" cy="49.4674%" r="49.9616%">
			<stop stop-color="#272727" stop-opacity="1" offset="1%"/>
			<stop stop-color="#080808" stop-opacity="1" offset="99%"/>
		</radialGradient>
		<linearGradient id="gradient3" x1="918.681640625" y1="215.5226287841797" x2="879.720703125" y2="264.800048828125" gradientUnits="userSpaceOnUse">
			<stop stop-color="#4d4d4d" stop-opacity="1" offset="1%"/>
			<stop stop-color="#717172" stop-opacity="1" offset="38%"/>
			<stop stop-color="#747476" stop-opacity="1" offset="55%"/>
			<stop stop-color="#4a4a4a" stop-opacity="1" offset="99%"/>
		</linearGradient>
		<linearGradient id="gradient4" x1="129.9580078125" y1="478.6275939941406" x2="129.9580078125" y2="475.8087463378906" gradientUnits="userSpaceOnUse">
			<stop stop-color="#595962" stop-opacity="1" offset="1%"/>
			<stop stop-color="#686868" stop-opacity="1" offset="50%"/>
			<stop stop-color="#595962" stop-opacity="1" offset="99%"/>
		</linearGradient>
		<linearGradient id="gradient5" x1="214.67626953125" y1="0.46720263361930847" x2="214.67626953125" y2="3.2850797176361084" gradientUnits="userSpaceOnUse">
			<stop stop-color="#595962" stop-opacity="1" offset="1%"/>
			<stop stop-color="#686868" stop-opacity="1" offset="50%"/>
			<stop stop-color="#595962" stop-opacity="1" offset="99%"/>
		</linearGradient>
		<linearGradient id="gradient6" x1="214.541015625" y1="478.6275939941406" x2="214.541015625" y2="475.8087463378906" gradientUnits="userSpaceOnUse">
			<stop stop-color="#595962" stop-opacity="1" offset="1%"/>
			<stop stop-color="#686868" stop-opacity="1" offset="50%"/>
			<stop stop-color="#595962" stop-opacity="1" offset="99%"/>
		</linearGradient>
		<linearGradient id="gradient7" x1="292.349609375" y1="478.6275939941406" x2="292.349609375" y2="475.8087463378906" gradientUnits="userSpaceOnUse">
			<stop stop-color="#595962" stop-opacity="1" offset="1%"/>
			<stop stop-color="#686868" stop-opacity="1" offset="50%"/>
			<stop stop-color="#595962" stop-opacity="1" offset="99%"/>
		</linearGradient>
		<linearGradient id="gradient8" x1="846.9990234375" y1="240.28436279296875" x2="112.954833984375" y2="240.28436279296875" gradientUnits="userSpaceOnUse">
			<stop stop-color="#333333" stop-opacity="1" offset="1%"/>
			<stop stop-color="#666666" stop-opacity="1" offset="99%"/>
		</linearGradient>
	</defs>
	<path d="M 960 64.7779 L 960 414.3178 C 960 448.1372 932.3574 475.8087 898.5723 475.8087 L 61.4277 475.8087 C 27.6426 475.8087 0 448.1372 0 414.3178 L 0 64.7779 C 0 30.9576 27.6426 3.2861 61.4277 3.2861 L 898.5723 3.2861 C 932.3574 3.2861 960 30.9576 960 64.7779 Z" fill="#525359"/>
	<path d="M 953.5371 67.8646 L 953.5371 411.2312 C 953.5371 442.9531 927.6104 468.9072 895.9209 468.9072 L 63.1836 468.9072 C 31.4946 468.9072 5.5669 442.9531 5.5669 411.2312 L 5.5669 67.8646 C 5.5669 36.1427 31.4946 10.1876 63.1836 10.1876 L 895.9209 10.1876 C 927.6104 10.1876 953.5371 36.1427 953.5371 67.8646 Z" fill="url(#gradient1)"/>
	<path d="M 953.5371 68.6329 L 953.5371 410.4619 C 953.5371 442.6071 927.2646 468.9072 895.1533 468.9072 L 63.9512 468.9072 C 31.8403 468.9072 5.5669 442.6071 5.5669 410.4619 L 5.5669 68.6329 C 5.5669 36.4887 31.8403 10.1876 63.9512 10.1876 L 895.1533 10.1876 C 927.2646 10.1876 953.5371 36.4887 953.5371 68.6329 Z" stroke="#232323" stroke-width="2" fill="none"/>
	<path d="M 51.6538 304.6347 C 51.6538 301.202 54.4341 298.4193 57.8633 298.4193 C 61.293 298.4193 64.0728 301.202 64.0728 304.6347 C 64.0728 308.0674 61.293 310.851 57.8633 310.851 C 54.4341 310.851 51.6538 308.0674 51.6538 304.6347 Z" stroke="#242424" stroke-width="1" fill="url(#gradient2)"/>
	<path d="M 61.8276 208.6099 L 61.8276 268.5643 C 61.8276 270.0441 60.6182 271.2541 59.1401 271.2541 L 58.1641 271.2541 C 56.6865 271.2541 55.4771 270.0441 55.4771 268.5643 L 55.4771 208.6099 C 55.4771 207.1301 56.6865 205.9191 58.1641 205.9191 L 59.1401 205.9191 C 60.6182 205.9191 61.8276 207.1301 61.8276 208.6099 Z" stroke="#262626" stroke-width="1" fill="#404040"/>
	<path d="M 931.3672 239.5479 C 931.3672 257.067 917.1865 271.2629 899.6855 271.2629 C 882.1855 271.2629 868.0039 257.067 868.0039 239.5479 C 868.0039 222.0288 882.1855 207.8328 899.6855 207.8328 C 917.0859 207.7322 931.3672 221.8284 931.3672 239.5479 ZM 870.6182 239.5479 C 870.6182 255.4562 883.5938 268.4441 899.585 268.4441 C 915.4766 268.4441 928.5518 255.5569 928.5518 239.5479 C 928.5518 223.6405 915.5771 210.6527 899.585 210.6527 C 883.5938 210.4503 870.6182 223.5389 870.6182 239.5479 Z" fill="url(#gradient3)"/>
	<g>
		<path d="M 110.8564 33.1049 L 110.8564 447.4648 L 846.8096 447.4648 L 846.8096 33.1049 L 110.8564 33.1049 Z" fill="none"/>
	</g>
	<path d="M 113.0337 475.8087 L 113.0337 476.7695 C 113.0337 477.7958 113.8643 478.6276 114.8892 478.6276 L 145.0269 478.6276 C 146.0518 478.6276 146.8828 477.7958 146.8828 476.7695 L 146.8828 475.8087 L 146.8828 475.8087 L 146.8828 475.8087 " stroke="#4f4f50" stroke-width="1" fill="url(#gradient4)"/>
	<path d="M 245.6787 3.2861 L 245.6787 2.3253 C 245.6787 1.3 244.8486 0.4682 243.8237 0.4682 L 185.5308 0.4682 C 184.5063 0.4682 183.6753 1.3 183.6753 2.3253 L 183.6753 3.2861 L 183.6753 3.2861 L 183.6753 3.2861 " stroke="#4f4f50" stroke-width="1" fill="url(#gradient5)"/>
	<path d="M 183.6753 475.8087 L 183.6753 476.7695 C 183.6753 477.7958 184.5063 478.6276 185.5308 478.6276 L 243.5513 478.6276 C 244.5762 478.6276 245.4072 477.7958 245.4072 476.7695 L 245.4072 475.8087 L 245.4072 475.8087 L 245.4072 475.8087 " stroke="#4f4f50" stroke-width="1" fill="url(#gradient6)"/>
	<path d="M 261.4839 475.8087 L 261.4839 476.7695 C 261.4839 477.7958 262.3149 478.6276 263.3389 478.6276 L 321.3594 478.6276 C 322.3848 478.6276 323.2153 477.7958 323.2153 476.7695 L 323.2153 475.8087 L 323.2153 475.8087 L 323.2153 475.8087 " stroke="#4f4f50" stroke-width="1" fill="url(#gradient7)"/>
	<path d="M 110.8564 33.1049 L 846.8096 33.1049 L 846.8096 447.4648 L 110.8564 447.4648 L 110.8564 33.1049 L 110.8564 33.1049 ZM 109.8564 32.1041 L 109.8564 33.1049 L 109.8564 447.4648 L 109.8564 448.4657 L 110.8564 448.4657 L 846.8096 448.4657 L 847.8096 448.4657 L 847.8096 447.4648 L 847.8096 33.1049 L 847.8096 32.1041 L 846.8096 32.1041 L 110.8564 32.1041 L 109.8564 32.1041 L 109.8564 32.1041 Z" fill="url(#gradient8)"/>
</svg>