<svg xmlns="http://www.w3.org/2000/svg" width="367" height="714"><linearGradient id="a" gradientUnits="userSpaceOnUse" x1="236.38" y1="568.38" x2="236.38" y2="-227.62" gradientTransform="matrix(1 0 0 -1 -50.88 573.88)"><stop offset="0" stop-color="#333"/><stop offset=".994" stop-color="#333"/></linearGradient><path fill="url(#a)" d="M54.5 5.5h262c27.614 0 50 22.386 50 50v608c0 27.614-22.386 50-50 50h-262c-27.614 0-50-22.386-50-50v-608c0-27.614 22.386-50 50-50z"/><linearGradient id="b" gradientUnits="userSpaceOnUse" x1="233.506" y1="208.554" x2="-136.494" y2="-670.446" gradientTransform="matrix(1 0 0 -1 -50.88 573.88)"><stop offset="0" stop-color="#333"/><stop offset=".989" stop-color="#666"/></linearGradient><path fill="url(#b)" stroke="#5F6161" stroke-width="2" d="M54.5 7.5h262c25.957 0 47 21.042 47 47v608c0 25.957-21.043 47-47 47h-262c-25.958 0-47-21.043-47-47v-608c0-25.958 21.042-47 47-47z"/><g opacity=".302"><path fill="#999" d="M160.5 67.029h49c3.866 0 7 2.568 7 5.735 0 3.167-3.134 5.735-7 5.735h-49c-3.866 0-7-2.568-7-5.735 0-3.167 3.134-5.735 7-5.735z"/><path d="M160.5 65.5h49c3.866 0 7 2.568 7 5.735 0 3.168-3.134 5.736-7 5.736h-49c-3.866 0-7-2.568-7-5.736 0-3.167 3.134-5.735 7-5.735z"/></g><linearGradient id="c" gradientUnits="userSpaceOnUse" x1="235.88" y1="507.615" x2="235.88" y2="495.954" gradientTransform="matrix(1 0 0 -1 -50.88 573.88)"><stop offset="0" stop-color="#333"/><stop offset=".222" stop-color="#666"/><stop offset=".517" stop-color="#666"/><stop offset=".989" stop-color="#666"/></linearGradient><path fill="url(#c)" d="M160.5 66.265h49c3.866 0 7 2.568 7 5.735 0 3.167-3.134 5.735-7 5.735h-49c-3.866 0-7-2.568-7-5.735 0-3.167 3.134-5.735 7-5.735z"/><linearGradient id="d" gradientUnits="userSpaceOnUse" x1="235.88" y1="507.615" x2="235.88" y2="496.144" gradientTransform="matrix(1 0 0 -1 -50.88 573.88)"><stop offset="0" stop-color="#1E1E1E"/><stop offset=".344" stop-color="#303030"/><stop offset=".989" stop-color="#303030"/></linearGradient><path fill="url(#d)" d="M160.5 66.265h49c3.866 0 7 2.568 7 5.735 0 3.167-3.134 5.735-7 5.735h-49c-3.866 0-7-2.568-7-5.735 0-3.167 3.134-5.735 7-5.735z"/><g opacity=".502"><path fill="#999" d="M105.556 72.788c0-4.028 3.266-7.294 7.294-7.294s7.294 3.266 7.294 7.294-3.266 7.294-7.294 7.294-7.294-3.266-7.294-7.294z"/><path d="M105.556 70.788c0-4.028 3.266-7.294 7.294-7.294s7.294 3.266 7.294 7.294-3.266 7.294-7.294 7.294-7.294-3.266-7.294-7.294z"/></g><linearGradient id="e" gradientUnits="userSpaceOnUse" x1="163.73" y1="509.386" x2="163.73" y2="494.798" gradientTransform="matrix(1 0 0 -1 -50.88 573.88)"><stop offset="0" stop-color="#1E1E1E"/><stop offset=".344" stop-color="#303030"/><stop offset=".989" stop-color="#303030"/></linearGradient><path fill="url(#e)" d="M105.556 71.788c0-4.028 3.266-7.294 7.294-7.294s7.294 3.266 7.294 7.294-3.266 7.294-7.294 7.294-7.294-3.266-7.294-7.294z"/><linearGradient id="f" gradientUnits="userSpaceOnUse" x1="265.584" y1="-49.94" x2="194.728" y2="-129.179" gradientTransform="matrix(1 0 0 -1 -50.88 573.88)"><stop offset="0" stop-color="#333"/><stop offset=".989" stop-color="#666"/></linearGradient><path fill="url(#f)" stroke="#5F6161" stroke-width="2" d="M151.422 654.97c0-19.566 15.861-35.428 35.428-35.428 19.567 0 35.428 15.861 35.428 35.428 0 19.567-15.861 35.428-35.428 35.428s-35.428-15.861-35.428-35.428z"/><path stroke="#666" stroke-width="2" d="M179.21 642.5h14.58c2.877 0 5.21 2.333 5.21 5.21v14.58c0 2.878-2.333 5.21-5.21 5.21h-14.58c-2.877 0-5.21-2.332-5.21-5.21v-14.58c0-2.877 2.333-5.21 5.21-5.21z" fill="none"/><rect x="25" y="121" opacity=".502" fill="#333" stroke="#5F5F5F" enable-background="new" width="321" height="481"/><path fill="#666" d="M3 76h2v36h-2c-1.657 0-3-1.343-3-3v-30c0-1.657 1.343-3 3-3z"/><path fill="#666" d="M3 141h2v29h-2c-1.657 0-3-1.343-3-3v-23c0-1.657 1.343-3 3-3z"/><path fill="#666" d="M3 214h2v29h-2c-1.657 0-3-1.343-3-3v-23c0-1.657 1.343-3 3-3z"/><path fill="#666" d="M317 3v2h-61v-2c0-1.657 1.343-3 3-3h55c1.657 0 3 1.343 3 3z"/><linearGradient id="g" gradientUnits="userSpaceOnUse" x1="315.485" y1="302.447" x2="1254.818" y2="137.542" gradientTransform="matrix(1 0 0 -1 -50.88 573.88)"><stop offset="0" stop-color="#fff"/><stop offset=".983" stop-color="#fff" stop-opacity="0"/></linearGradient><path opacity=".102" fill="url(#g)" enable-background="new" d="M162.31 6.5h145.38c31.652 0 57.31 25.658 57.31 57.31v495.38c0 31.652-202.69-205.554-202.69-552.69z"/><path d="M25.613 121.645h319.769v22h-319.769v-22z"/><path opacity=".2" fill="#fff" enable-background="new" d="M338.022 134v-3h1.993v3h-1.993zm0-8h-18.941v13h18.941v-3h3.987v-7h-3.987v-3zm-1.994 2v9h-14.953v-9h14.953zm-13.956 1v7h4.983v-7h-4.983z"/><path opacity=".2" fill="#fff" enable-background="new" d="M35.969 133v4h1.994v-4h-1.994zm3.987-1v5h1.994v-5h-1.994zm3.987-2v7h1.994v-7h-1.994zm3.988-1v8h1.994v-8h-1.994zm3.987-3v11h1.994v-11h-1.994z"/></svg>